<svg width="54" height="43" viewBox="0 0 54 43" fill="none" xmlns="http://www.w3.org/2000/svg">
<path d="M20.25 18.8125L17.685 24.3219L12.15 26.875L17.685 29.4281L20.25 34.9375L22.815 29.4281L28.35 26.875L22.815 24.3219L20.25 18.8125ZM36.45 18.8125L34.695 22.4406L31.05 24.1875L34.695 25.9344L36.45 29.5625L38.205 25.9344L41.85 24.1875L38.205 22.4406L36.45 18.8125ZM5.4 0L10.8 10.75H18.9L13.5 0H18.9L24.3 10.75H32.4L27 0H32.4L37.8 10.75H45.9L40.5 0H48.6C50.085 0 51.3567 0.52675 52.4151 1.58025C53.4717 2.63196 54 3.89687 54 5.375V37.625C54 39.1031 53.4717 40.3689 52.4151 41.4224C51.3567 42.4741 50.085 43 48.6 43H5.4C3.915 43 2.6442 42.4741 1.5876 41.4224C0.5292 40.3689 0 39.1031 0 37.625V5.375C0 3.89687 0.5292 2.63196 1.5876 1.58025C2.6442 0.52675 3.915 0 5.4 0Z" fill="white"/>
</svg>
